<?xml version="1.0" encoding="UTF-8" standalone="no"?>
<svg
   version="1.2"
   viewBox="0 0 1843.3624 515.31531"
   id="svg5030"
   sodipodi:docname="logo.svg"
   inkscape:version="1.2.2 (b0a8486541, 2022-12-01)"
   width="1843.3624"
   height="515.31531"
   xmlns:inkscape="http://www.inkscape.org/namespaces/inkscape"
   xmlns:sodipodi="http://sodipodi.sourceforge.net/DTD/sodipodi-0.dtd"
   xmlns:xlink="http://www.w3.org/1999/xlink"
   xmlns="http://www.w3.org/2000/svg"
   xmlns:svg="http://www.w3.org/2000/svg"
   xmlns:rdf="http://www.w3.org/1999/02/22-rdf-syntax-ns#"
   xmlns:cc="http://creativecommons.org/ns#"
   xmlns:dc="http://purl.org/dc/elements/1.1/">
  <defs
     id="defs5034">
    <linearGradient
       inkscape:collect="always"
       id="linearGradient1370">
      <stop
         style="stop-color:#000000;stop-opacity:1;"
         offset="0.48825437"
         id="stop1366" />
      <stop
         style="stop-color:#3d3d3d;stop-opacity:1;"
         offset="0.49818477"
         id="stop1368" />
    </linearGradient>
    <rect
       x="60.065651"
       y="-186.24864"
       width="1902.5508"
       height="576.47095"
       id="rect1254" />
    <linearGradient
       inkscape:collect="always"
       id="linearGradient7029">
      <stop
         style="stop-color:#e19045;stop-opacity:1;"
         offset="0"
         id="stop7025" />
      <stop
         style="stop-color:#e05938;stop-opacity:1;"
         offset="1"
         id="stop7027" />
    </linearGradient>
    <linearGradient
       inkscape:collect="always"
       xlink:href="#linearGradient7029"
       id="linearGradient7031"
       x1="-0.75778967"
       y1="250.14581"
       x2="1842.6046"
       y2="250.14581"
       gradientUnits="userSpaceOnUse"
       gradientTransform="matrix(1,0,0,1.0251858,0.75778967,1.2117298)" />
    <linearGradient
       inkscape:collect="always"
       xlink:href="#linearGradient1370"
       id="linearGradient1372"
       x1="680.89417"
       y1="408.03296"
       x2="744.11224"
       y2="119.10176"
       gradientUnits="userSpaceOnUse"
       gradientTransform="translate(-2.8262409,7.917602)" />
  </defs>
  <sodipodi:namedview
     id="namedview5032"
     pagecolor="#000000"
     bordercolor="#000000"
     borderopacity="0.25"
     inkscape:showpageshadow="true"
     inkscape:pageopacity="0"
     inkscape:pagecheckerboard="0"
     inkscape:deskcolor="#000000"
     showgrid="false"
     inkscape:zoom="0.25"
     inkscape:cx="410"
     inkscape:cy="486"
     inkscape:window-width="1920"
     inkscape:window-height="1001"
     inkscape:window-x="0"
     inkscape:window-y="1080"
     inkscape:window-maximized="1"
     inkscape:current-layer="svg5030"
     showborder="false"
     borderlayer="true" />
  <title
     id="title5025">Carroted Logo-svg</title>
  <style
     id="style5027">
		.s0 { fill: #ff7038 } 
	</style>
  <metadata
     id="metadata9136">
    <rdf:RDF>
      <cc:Work
         rdf:about="">
        <dc:title>Carroted Logo-svg</dc:title>
      </cc:Work>
    </rdf:RDF>
  </metadata>
  <text
     xml:space="preserve"
     id="text1252"
     style="font-style:normal;font-variant:normal;font-weight:bold;font-stretch:normal;font-size:192px;font-family:'Carroted Mark';-inkscape-font-specification:'Carroted Mark Bold';white-space:pre;shape-inside:url(#rect1254);display:inline;fill:#3d3d3d;fill-opacity:1;stroke:#3d3d3d;stroke-width:2;stroke-linecap:round;stroke-linejoin:round;stroke-opacity:1"
     transform="translate(0.75778967,7.5118561)" />
  <rect
     style="fill:url(#linearGradient7031);fill-opacity:1;stroke-width:1.01251"
     id="rect5794"
     width="1843.3624"
     height="515.31531"
     x="0"
     y="0"
     ry="48.281075" />
  <g
     aria-label="carroted"
     id="text1260"
     style="font-weight:bold;font-size:460.565px;font-family:'Carroted Mark';-inkscape-font-specification:'Carroted Mark Bold';fill:url(#linearGradient1372);stroke-width:4.79756;stroke-linecap:round;stroke-linejoin:round">
    <path
       d="m 206.42542,191.18006 c 0,0 0,0 0,0 18.88316,0 36.38463,5.06621 51.58328,14.73808 0,0 0,0 0,0 7.8296,5.52678 11.97469,12.89582 11.97469,22.10712 0,0 0,0 0,0 -1.3817,9.67186 -5.98735,17.0409 -14.73808,21.18599 0,0 0,0 0,0 -8.75074,3.68452 -16.58034,2.76339 -23.94938,-2.76339 0,0 0,0 0,0 -6.90848,-3.68452 -15.19865,-5.52678 -24.87051,-5.52678 0,0 0,0 0,0 -7.82961,0 -15.65921,2.30282 -23.02825,6.44791 0,0 0,0 0,0 -13.35639,9.2113 -20.26486,26.71277 -20.26486,52.50441 0,0 0,0 0,0 0,0 0,0.92113 0,0.92113 0,27.6339 6.44791,45.59593 19.34373,54.34667 0,0 0,0 0,0 6.90847,4.14508 14.73808,6.44791 23.94938,6.44791 0,0 0,0 0,0 9.67186,0 17.96203,-2.30283 24.87051,-6.44791 0,0 0,0 0,0 7.36904,-5.98735 15.19864,-6.90848 23.94938,-2.76339 8.75073,4.14508 13.35638,11.51412 14.73808,21.18599 0,0 0,0 0,0 0,9.67186 -4.14509,17.0409 -11.97469,21.18599 0,0 0,0 0,0 -15.19865,10.59299 -32.70012,15.65921 -51.58328,15.65921 -18.88317,0 -35.46351,-5.06622 -49.74102,-14.73808 0,0 0,0 0,0 -28.09447,-17.96204 -42.37198,-49.74102 -42.37198,-95.79752 0,0 0,0 0,0 0,-39.14803 11.97469,-68.62419 35.92407,-88.42848 0,0 0,0 0,0 15.19864,-13.35639 34.08181,-20.26486 56.18893,-20.26486 z"
       id="path342" />
    <path
       d="m 390.65058,193.94345 c 8.29017,-2.30283 15.65921,1.38169 21.18599,11.97469 0,0 71.84814,122.04972 71.84814,122.04972 7.8296,12.43526 10.59299,28.09447 7.8296,47.4382 -2.30282,17.50147 -8.75073,28.55503 -19.34373,33.16068 -10.13243,4.60565 -19.34373,0 -27.17333,-13.35639 0,0 -51.58328,-90.7313 -51.58328,-90.7313 0,0 -51.58328,90.7313 -51.58328,90.7313 -6.90848,13.35639 -16.11978,17.96204 -27.17334,13.35639 -10.13243,-4.60565 -16.58034,-15.65921 -19.34373,-33.16068 -2.30282,-19.34373 0,-35.00294 7.82961,-47.4382 0,0 70.92701,-122.04972 70.92701,-122.04972 4.60565,-7.82961 10.13243,-11.97469 16.58034,-11.97469 z"
       id="path344" />
    <path
       d="m 621.39357,191.18006 c 0,0 0,0 0,0 33.62124,0 59.41288,15.19864 76.45379,45.13537 0,0 0,0 0,0 5.06621,9.2113 5.06621,17.96203 0,26.71277 0,0 0,0 0,0 -5.52678,7.8296 -13.35639,11.51412 -23.02825,11.05356 0,0 0,0 0,0 -9.67187,-1.3817 -16.58034,-6.44791 -20.26486,-15.65921 0,0 0,0 0,0 -4.14509,-8.75074 -9.67187,-13.81695 -16.58034,-15.65921 0,0 0,0 0,0 -5.06622,-1.3817 -10.593,-1.84226 -16.58034,-1.84226 0,0 0,0 0,0 -16.11978,0 -26.71277,4.14508 -32.23955,12.89582 0,0 0,0 0,0 -0.46057,1.38169 -1.3817,2.76339 -2.76339,4.60565 0,0 0,0 0,0 -3.22396,6.90847 -5.06622,13.81695 -5.52678,21.18599 0,0 0,0 0,0 0,0 0,105.92995 0,105.92995 0,9.2113 -3.68452,16.11977 -11.05356,21.18599 0,0 0,0 0,0 -8.75074,5.06621 -17.04091,5.06621 -24.87051,0 -7.82961,-5.06622 -11.97469,-11.97469 -11.97469,-21.18599 0,0 0,0 0,0 0,0 0,-105.92995 0,-105.92995 3.22395,-42.37198 21.64655,-69.54532 56.18893,-81.98057 0,0 0,0 0,0 9.67186,-4.14509 20.72542,-6.44791 32.23955,-6.44791 z"
       id="path346" />
    <path
       d="m 826.80513,191.18006 c 0,0 0,0 0,0 33.62124,0 59.41288,15.19864 76.45379,45.13537 0,0 0,0 0,0 5.06621,9.2113 5.06621,17.96203 0,26.71277 0,0 0,0 0,0 -5.52678,7.8296 -13.35639,11.51412 -23.02825,11.05356 0,0 0,0 0,0 -9.67187,-1.3817 -16.58034,-6.44791 -20.26486,-15.65921 0,0 0,0 0,0 -4.14509,-8.75074 -9.67187,-13.81695 -16.58034,-15.65921 0,0 0,0 0,0 -5.06622,-1.3817 -10.593,-1.84226 -16.58034,-1.84226 0,0 0,0 0,0 -16.11978,0 -26.71277,4.14508 -32.23955,12.89582 0,0 0,0 0,0 -0.46057,1.38169 -1.3817,2.76339 -2.76339,4.60565 0,0 0,0 0,0 -3.22396,6.90847 -5.06622,13.81695 -5.52678,21.18599 0,0 0,0 0,0 0,0 0,105.92995 0,105.92995 0,9.2113 -3.68452,16.11977 -11.05356,21.18599 0,0 0,0 0,0 -8.75074,5.06621 -17.04091,5.06621 -24.87051,0 -7.82961,-5.06622 -11.97469,-11.97469 -11.97469,-21.18599 0,0 0,0 0,0 0,0 0,-105.92995 0,-105.92995 3.22395,-42.37198 21.64655,-69.54532 56.18893,-81.98057 0,0 0,0 0,0 9.67186,-4.14509 20.72542,-6.44791 32.23955,-6.44791 z"
       id="path348" />
    <path
       d="m 1033.1379,192.10119 c 0,0 0,0 0,0 -18.4226,0 -35.00296,5.06621 -49.74104,15.65921 0,0 0,0 0,0 -27.6339,18.4226 -41.45085,49.28045 -41.45085,93.03413 0,0 0,0 0,0 -0.46057,40.99028 10.59299,71.38757 34.08181,91.19187 0,0 0,0 0,0 16.58034,12.43525 35.46348,18.4226 57.11008,18.4226 0,0 0,0 0,0 18.8831,0 36.3846,-5.06622 51.5833,-14.73808 0,0 0,0 0,0 27.6339,-18.4226 41.4508,-50.20159 41.4508,-94.87639 0,0 0,0 0,0 0,-41.91142 -13.8169,-73.22984 -41.4508,-93.95526 0,0 0,0 0,0 -14.7381,-9.67187 -31.779,-14.73808 -51.5833,-14.73808 z m -43.29313,112.37786 c 0,0 0,0 0,0 0,0 0,-3.68452 0,-3.68452 0,-26.25221 6.90847,-43.75368 20.26483,-52.50441 0,0 0,0 0,0 7.3691,-5.06622 15.1987,-7.36904 23.0283,-7.36904 0,0 0,0 0,0 29.9367,0 45.1353,19.80429 45.1353,59.87345 0,0 0,0 0,0 0,40.99028 -15.1986,61.71571 -45.1353,61.71571 0,0 0,0 0,0 -29.0156,0 -43.29313,-19.34373 -43.29313,-58.03119 z"
       id="path350" />
    <path
       d="m 1212.7579,104.59383 c 0,0 0,0 0,0 7.3691,0 13.3564,2.30283 18.4226,7.36904 5.0662,5.06622 6.9085,10.593 6.4479,17.50148 0,0 0,0 0,0 0,0 0,63.55797 0,63.55797 0,0 30.3973,0 30.3973,0 9.6719,0 17.0409,4.14508 22.1071,12.89582 0,0 0,0 0,0 5.0663,7.36904 5.0663,15.19864 0,23.94938 -5.0662,8.75073 -12.4352,12.43525 -22.1071,11.97469 0,0 0,0 0,0 0,0 -30.3973,0 -30.3973,0 0,0 0,95.79752 0,95.79752 0,9.2113 1.3817,15.19864 4.6057,18.4226 0,0 0,0 0,0 1.8422,2.30282 5.0662,4.14508 9.2113,4.60565 0,0 0,0 0,0 5.0662,1.84226 11.0535,1.38169 18.4226,-0.92113 0,0 0,0 0,0 9.6718,-3.22396 18.4226,-0.92113 25.7916,6.44791 0,0 0,0 0,0 5.9874,5.98734 7.8296,14.27751 5.5268,23.94938 0,0 0,0 0,0 -2.3028,9.2113 -8.2902,15.19864 -17.5015,17.50147 0,0 0,0 0,0 0,0 -17.5014,2.76339 -17.5014,2.76339 -27.1734,1.84226 -47.4382,-5.52678 -60.7946,-22.10712 0,0 0,0 0,0 -11.0536,-12.89582 -16.5804,-29.93673 -16.5804,-50.66215 0,0 0,0 0,0 0,0 0,-95.79752 0,-95.79752 0,0 -14.738,0 -14.738,0 -9.6719,0.46056 -17.0409,-3.22396 -21.186,-11.97469 0,0 0,0 0,0 -5.0662,-8.75074 -5.0662,-16.58034 0,-23.94938 0,0 0,0 0,0 4.1451,-8.75074 11.5141,-12.89582 21.186,-12.89582 0,0 0,0 0,0 0,0 14.738,0 14.738,0 0,0 0,-63.55797 0,-63.55797 0,-9.67187 4.1451,-17.50148 12.8959,-23.02826 0,0 0,0 0,0 3.6845,-1.38169 7.369,-1.84226 11.0535,-1.84226 z"
       id="path352" />
    <path
       d="m 1435.671,359.74685 c 0,0 0,0 0,0 0,0 -8.2902,0 -8.2902,0 -20.2649,-3.22396 -32.7001,-15.19865 -36.8452,-35.92407 0,0 0,0 0,0 0,0 100.4032,0 100.4032,0 11.0535,0 18.4226,-5.06622 22.1071,-14.73808 0,0 0,0 0,0 1.3817,-3.22396 1.8422,-5.98735 1.8422,-9.2113 0,0 0,0 0,0 0,0 0,-9.2113 0,-9.2113 0,-42.83255 -14.738,-73.6904 -44.2142,-92.113 0,0 0,0 0,0 -11.0536,-5.98735 -23.4888,-9.2113 -37.7663,-9.2113 0,0 0,0 0,0 -18.8832,0 -35.9241,5.06621 -50.6622,15.65921 0,0 0,0 0,0 -27.1733,17.96203 -41.4508,47.43819 -43.2931,89.34961 0,0 0,0 0,0 -0.4606,3.68452 -0.4606,6.90847 0,10.13243 0,0 0,0 0,0 1.8423,40.06915 16.1198,69.54531 43.2931,89.34961 0,0 0,0 0,0 14.7381,10.59299 29.9367,15.65921 45.1354,15.65921 0,0 0,0 0,0 21.6465,0.46056 36.8452,0 46.0565,-1.84226 0,0 0,0 0,0 12.8958,-3.22396 23.4888,-8.29017 32.2395,-15.65921 0,0 0,0 0,0 7.8296,-5.52678 11.0536,-12.89582 9.2113,-22.10712 0,0 0,0 0,0 -1.3817,-9.67187 -5.9873,-16.58034 -13.8169,-20.26486 0,0 0,0 0,0 -9.2113,-3.22396 -17.5015,-1.3817 -24.8705,4.60565 0,0 0,0 0,0 -5.5268,3.68452 -18.8832,5.52678 -40.5297,5.52678 z m -5.5268,-120.66803 c 0,0 1.8422,0 1.8422,0 5.9874,0 11.5142,1.38169 15.6592,3.68452 0,0 0,0 0,0 9.6719,5.06621 16.1198,15.19864 18.4226,30.39729 0,0 0,0 0,0 0,0 0,1.84226 0,1.84226 0,0 -75.5326,0 -75.5326,0 2.3028,-13.35639 8.7507,-23.48882 18.4226,-30.39729 0,0 0,0 0,0 6.9085,-3.68452 12.8958,-5.52678 18.4226,-5.52678 0,0 0,0 0,0 0,0 2.7634,0 2.7634,0 z"
       id="path354" />
    <path
       d="m 1729.05,310.00583 c 0,0 0,0 0,0 0,0 0,-177.77809 0,-177.77809 0,-7.36904 -2.3028,-13.35639 -7.369,-17.50147 0,0 0,0 0,0 -4.1451,-5.52679 -10.1325,-8.29018 -17.5015,-8.29018 0,0 0,0 0,0 -10.593,0 -17.962,5.06622 -22.1071,14.73809 0,0 0,0 0,0 -1.3817,3.22395 -1.8423,6.90847 -1.8423,11.05356 0,0 0,0 0,0 0,0 0,70.00588 0,70.00588 -13.3564,-5.98735 -26.7128,-9.2113 -39.6086,-9.2113 0,0 0,0 0,0 -17.962,1.38169 -32.7001,5.98734 -44.2142,13.81695 0,0 0,0 0,0 -29.0156,18.88316 -43.2931,50.66215 -43.2931,94.87639 0,0 0,0 0,0 0,38.68746 11.9747,68.62418 35.924,89.34961 0,0 0,0 0,0 0,0 7.3691,4.60565 7.3691,4.60565 13.3564,9.2113 27.1733,14.27751 41.4508,14.73808 0,0 0,0 0,0 0,0 0,0 0,0 0,0 0.9212,0 0.9212,0 0,0 1.8422,0 1.8422,0 0,0 0,0 0,0 14.7381,1.38169 29.4762,-1.84226 44.2143,-9.2113 0,0 0,0 0,0 20.7254,-11.05356 34.5423,-30.85786 40.5297,-58.95232 0,0 0,0 0,0 2.3028,-9.67187 3.6845,-20.72543 3.6845,-32.23955 z m -48.8199,-29.47616 c 0,0 0,0 0,0 0,0 0,29.47616 0,29.47616 0.4606,26.2522 -5.5268,42.37198 -18.4226,47.89876 0,0 0,0 0,0 -5.5268,3.68452 -11.5141,5.06621 -17.5015,4.60565 0,0 0,0 0,0 0,0 -3.6845,0 -3.6845,0 -6.9085,-1.84226 -12.8958,-4.14509 -18.4226,-7.36904 0,0 0,0 0,0 -12.8958,-12.43526 -19.8043,-29.93673 -20.2648,-53.42554 0,0 0,0 0,0 0,-27.17334 6.9084,-45.13537 20.2648,-54.34667 0,0 0,0 0,0 7.3691,-4.14509 13.3564,-6.44791 18.4226,-6.44791 0,0 0,0 0,0 8.7508,1.38169 15.6592,3.22395 21.186,5.52678 0,0 0,0 0,0 8.7507,5.06621 14.2775,10.59299 16.5804,16.58034 0,0 0,0 0,0 1.3816,5.06621 1.8422,10.59299 1.8422,17.50147 z"
       id="path356" />
  </g>
</svg>
